<?xml version="1.0" encoding="utf-8"?>
<!-- Generator: Adobe Illustrator 24.1.1, SVG Export Plug-In . SVG Version: 6.00 Build 0)  -->
<svg version="1.1" id="Capa_1" xmlns="http://www.w3.org/2000/svg" xmlns:xlink="http://www.w3.org/1999/xlink" x="0px" y="0px"
	 viewBox="0 0 512 512" style="enable-background:new 0 0 512 512;" xml:space="preserve">
<g>
	<path d="M278.8,467.4v5.1h2.3C280.4,470.9,279.6,469.2,278.8,467.4z"/>
</g>
<g>
	<polygon points="355.5,125.6 355.5,218.9 491,218.9 491,285.6 355.5,285.6 355.5,453.1 290.4,453.1 290.4,58.9 512,58.9 512,125.6 
			"/>
	<path d="M213.8,312.1c-9.1-11.9-20.7-22.9-34.7-32.9c27.2-4.8,48.3-16.7,63.1-35.5c14.8-18.8,22.2-43.7,22.2-74.5
		c0-24.4-4.8-45.3-14.5-62.8c-9.7-17.5-22-29.8-37.1-36.8c-15.1-7.1-40.2-10.6-75.3-10.6H0v394.2h65.1V288.5h13.4
		c15.1,0,26,1.5,32.8,4.4c6.8,3,13.3,8.3,19.4,16.1c6.1,7.8,17.6,27.2,34.6,58.2l47.2,85.8h77.9l-39.3-76.9
		C235.4,345.4,222.9,324,213.8,312.1z M113.5,225.6H65.1v-100h51.1c29.2,0,46.9,1,53,3c8.6,2.9,15.4,8.1,20.4,15.7
		c5,7.6,7.5,17.7,7.5,30.3c0,13.1-2.5,23.6-7.5,31.5c-5,7.9-11.6,13.1-19.6,15.7C161.9,224.3,143.1,225.6,113.5,225.6z"/>
</g>
</svg>
